<svg width="20" height="20" viewBox="0 0 20 20" fill="none" xmlns="http://www.w3.org/2000/svg">
<path d="M3.33331 5.83333H16.6666H3.33331ZM13.3333 5.83333V3.33333C13.3333 3.11232 13.2455 2.90036 13.0892 2.74408C12.933 2.5878 12.721 2.5 12.5 2.5H7.49998C7.27897 2.5 7.067 2.5878 6.91072 2.74408C6.75444 2.90036 6.66665 3.11232 6.66665 3.33333V5.83333H13.3333ZM15 16.6667V5.83333H4.99998V16.6667C4.99998 16.8877 5.08778 17.0996 5.24406 17.2559C5.40034 17.4122 5.6123 17.5 5.83331 17.5H14.1666C14.3877 17.5 14.5996 17.4122 14.7559 17.2559C14.9122 17.0996 15 16.8877 15 16.6667Z" stroke="#393939" stroke-linecap="round" stroke-linejoin="round"/>
</svg>
