<svg width="24" height="24" viewBox="0 0 24 24" fill="none" xmlns="http://www.w3.org/2000/svg">
<path d="M17 16V20C17 20.2652 16.8946 20.5196 16.7071 20.7071C16.5196 20.8946 16.2652 21 16 21H4C3.73478 21 3.48043 20.8946 3.29289 20.7071C3.10536 20.5196 3 20.2652 3 20V7C3 6.73478 3.10536 6.48043 3.29289 6.29289C3.48043 6.10536 3.73478 6 4 6H7" stroke="black" stroke-linecap="round" stroke-linejoin="round"/>
<path d="M13 6H16C16.2652 6 16.5196 6.10536 16.7071 6.29289C16.8946 6.48043 17 6.73478 17 7V10" stroke="black" stroke-linecap="round" stroke-linejoin="round"/>
<path d="M12 5C12 4.46957 11.7893 3.96086 11.4142 3.58579C11.0391 3.21071 10.5304 3 10 3C9.46957 3 8.96086 3.21071 8.58579 3.58579C8.21071 3.96086 8 4.46957 8 5C7.73478 5 7.48043 5.10536 7.29289 5.29289C7.10536 5.48043 7 5.73478 7 6V8H13V6C13 5.73478 12.8946 5.48043 12.7071 5.29289C12.5196 5.10536 12.2652 5 12 5ZM20.71 10.69L19.31 9.29C19.1231 9.10677 18.8718 9.00414 18.61 9.00414C18.3482 9.00414 18.0969 9.10677 17.91 9.29L13 14.2V17H15.8L20.71 12.09C20.8932 11.9031 20.9959 11.6518 20.9959 11.39C20.9959 11.1282 20.8932 10.8769 20.71 10.69Z" stroke="black" stroke-linecap="round" stroke-linejoin="round"/>
</svg>
